<mxfile host="65bd71144e">
    <diagram id="FoVb34NPV3Eg_lGalUp8" name="Page-1">
        <mxGraphModel dx="490" dy="522" grid="1" gridSize="10" guides="1" tooltips="1" connect="1" arrows="1" fold="1" page="1" pageScale="1" pageWidth="850" pageHeight="1100" math="0" shadow="0">
            <root>
                <mxCell id="0"/>
                <mxCell id="1" parent="0"/>
                <mxCell id="2" value="EYEBROW HEADER&amp;nbsp;" style="rounded=1;whiteSpace=wrap;html=1;fontStyle=4;fontFamily=Comic Sans MS;" vertex="1" parent="1">
                    <mxGeometry x="50" y="530" width="410" height="60" as="geometry"/>
                </mxCell>
                <mxCell id="3" value="EYEBROW IMG" style="shape=parallelogram;perimeter=parallelogramPerimeter;whiteSpace=wrap;html=1;fixedSize=1;fontFamily=Comic Sans MS;" vertex="1" parent="1">
                    <mxGeometry x="50" y="530" width="120" height="60" as="geometry"/>
                </mxCell>
                <mxCell id="4" value="EYEBROW IMG" style="shape=parallelogram;perimeter=parallelogramPerimeter;whiteSpace=wrap;html=1;fixedSize=1;fontFamily=Comic Sans MS;" vertex="1" parent="1">
                    <mxGeometry x="330" y="530" width="120" height="60" as="geometry"/>
                </mxCell>
                <mxCell id="5" value="MISSION STATEMENT" style="rounded=1;whiteSpace=wrap;html=1;fontFamily=Comic Sans MS;" vertex="1" parent="1">
                    <mxGeometry x="110" y="610" width="300" height="60" as="geometry"/>
                </mxCell>
                <mxCell id="6" value="AD!" style="rounded=1;whiteSpace=wrap;html=1;fontFamily=Comic Sans MS;" vertex="1" parent="1">
                    <mxGeometry x="20" y="620" width="70" height="240" as="geometry"/>
                </mxCell>
                <mxCell id="7" value="&quot;ANON&quot;&lt;br&gt;CELEB&amp;nbsp;&lt;br&gt;REVIEW" style="rounded=1;whiteSpace=wrap;html=1;fontFamily=Comic Sans MS;" vertex="1" parent="1">
                    <mxGeometry x="420" y="620" width="80" height="230" as="geometry"/>
                </mxCell>
                <mxCell id="8" value="Actor" style="shape=umlActor;verticalLabelPosition=bottom;verticalAlign=top;html=1;outlineConnect=0;fontFamily=Comic Sans MS;" vertex="1" parent="1">
                    <mxGeometry x="130" y="700" width="30" height="60" as="geometry"/>
                </mxCell>
                <mxCell id="9" value="Actor" style="shape=umlActor;verticalLabelPosition=bottom;verticalAlign=top;html=1;outlineConnect=0;fontFamily=Comic Sans MS;" vertex="1" parent="1">
                    <mxGeometry x="235" y="695" width="50" height="70" as="geometry"/>
                </mxCell>
                <mxCell id="11" value="Actor" style="shape=umlActor;verticalLabelPosition=bottom;verticalAlign=top;html=1;outlineConnect=0;fontFamily=Comic Sans MS;" vertex="1" parent="1">
                    <mxGeometry x="350" y="730" width="30" height="30" as="geometry"/>
                </mxCell>
                <mxCell id="12" value="Actor" style="shape=umlActor;verticalLabelPosition=bottom;verticalAlign=top;html=1;outlineConnect=0;fontFamily=Comic Sans MS;" vertex="1" parent="1">
                    <mxGeometry x="211.25" y="810" width="118.75" height="60" as="geometry"/>
                </mxCell>
                <mxCell id="13" value="Actor" style="shape=umlActor;verticalLabelPosition=bottom;verticalAlign=top;html=1;outlineConnect=0;fontFamily=Comic Sans MS;" vertex="1" parent="1">
                    <mxGeometry x="130" y="810" width="60" height="90" as="geometry"/>
                </mxCell>
                <mxCell id="14" value="Actor" style="shape=umlActor;verticalLabelPosition=bottom;verticalAlign=top;html=1;outlineConnect=0;fontFamily=Comic Sans MS;" vertex="1" parent="1">
                    <mxGeometry x="350" y="820" width="30" height="60" as="geometry"/>
                </mxCell>
                <mxCell id="16" value="LOCATIONS" style="rounded=1;whiteSpace=wrap;html=1;fontFamily=Comic Sans MS;" vertex="1" parent="1">
                    <mxGeometry x="50" y="930" width="410" height="80" as="geometry"/>
                </mxCell>
                <mxCell id="17" value="SERVICES&amp;nbsp;" style="rounded=1;whiteSpace=wrap;html=1;fontFamily=Comic Sans MS;" vertex="1" parent="1">
                    <mxGeometry x="40" y="1030" width="440" height="60" as="geometry"/>
                </mxCell>
                <mxCell id="18" value="Vertical Container" style="swimlane;whiteSpace=wrap;html=1;fontFamily=Comic Sans MS;" vertex="1" parent="1">
                    <mxGeometry x="160" y="680" width="200" height="200" as="geometry"/>
                </mxCell>
            </root>
        </mxGraphModel>
    </diagram>
</mxfile>